<?xml version="1.0" encoding="UTF-8"?>
<!DOCTYPE svg PUBLIC "-//W3C//DTD SVG 1.1//EN" "http://www.w3.org/Graphics/SVG/1.1/DTD/svg11.dtd">
<!-- Creator: CorelDRAW -->
<svg xmlns="http://www.w3.org/2000/svg" xml:space="preserve" width="6.82666in" height="6.82666in" style="shape-rendering:geometricPrecision; text-rendering:geometricPrecision; image-rendering:optimizeQuality; fill-rule:evenodd; clip-rule:evenodd"
viewBox="0 0 6.82666 6.82666"
 xmlns:xlink="http://www.w3.org/1999/xlink">
 <defs>
  <style type="text/css">
   <![CDATA[
    .fil0 {fill:#AB47BC}
    .fil1 {fill:#FFFFFE;fill-rule:nonzero}
   ]]>
  </style>
 </defs>
 <g id="Layer_x0020_1">
  <metadata id="CorelCorpID_0Corel-Layer"/>
  <g id="_542502272">
   <rect id="_464626008" class="fil0" width="6.82666" height="6.82666"/>
   <rect id="_542500280" class="fil0" x="0.853331" y="0.853331" width="5.12" height="5.12"/>
  </g>
  <g id="_542502992">
   <path id="_542500160" class="fil1" d="M3.73342 4.36899c0.148433,-0.0465433 0.302598,-0.0820512 0.458075,-0.108665 0.203988,-0.0349173 0.411933,-0.0547992 0.612925,-0.0644291l2.3622e-005 -2.66457 -1.07122 0.440665 0.00019685 2.397zm0.494012 0.101917c-0.195531,0.0334685 -0.386878,0.0810276 -0.563362,0.147118l-0.14372 0.0538189 -1.1811e-005 -0.153681 -0.000216535 -2.61762 -7.87402e-006 -0.0714449 0.0660236 -0.0271614 1.28432 -0.528327 0.147079 -0.0605 0 0.159106 -2.3622e-005 2.92613 -3.93701e-006 0.103295 -0.103201 0.00325197c-0.221705,0.00698031 -0.45602,0.0264921 -0.686878,0.0660118z"/>
   <path id="_542504240" class="fil1" d="M5.94902 1.67216c0.0237008,0.00417323 0.0466378,0.0139646 0.0668465,0.0289961 0.0199882,0.014874 0.0359449,0.0341929 0.0469685,0.0561575 0.0111299,0.0221614 0.0171614,0.0463386 0.0171614,0.0706772l0 3.23919c0,0.0220512 -0.00471654,0.0437874 -0.0135827,0.0638661 -0.00883071,0.0199961 -0.0217992,0.0381575 -0.0383228,0.0531575l-0.000413386 0c-0.0169803,0.015378 -0.0362165,0.026622 -0.0564252,0.0332913 -0.0203465,0.00670866 -0.0424567,0.00916929 -0.0650118,0.00692126l3.93701e-006 -3.93701e-005c-0.344772,-0.033748 -0.781791,-0.0507756 -1.19237,-0.00694488 -0.304406,0.0324921 -0.592969,0.0984134 -0.814484,0.216004l0.0539173 -0.028626 -0.0540079 0.0284528 9.05512e-005 0.000173228 -9.05512e-005 -0.000173228 -0.000326772 0.000173228 -0.00742913 0.00391339c-0.0667638,0.0352126 -0.334417,0.176378 -0.478189,0.176378 -0.143787,0 -0.411217,-0.141071 -0.478094,-0.176343l-0.00749606 -0.00394882 -0.000326772 -0.000173228 -9.05512e-005 0.000173228c-0.221579,-0.117594 -0.510161,-0.183516 -0.814583,-0.216012 -0.410555,-0.0438268 -0.847528,-0.0267992 -1.19233,0.00695276l3.93701e-006 3.93701e-005c-0.00732283,0.000728346 -0.0125276,0.00109449 -0.0155945,0.00109449 -0.0401929,0 -0.0774449,-0.0155945 -0.105795,-0.041311l-0.000413386 0c-0.0279213,-0.0253346 -0.0468543,-0.060937 -0.0508858,-0.101413 -0.000720472,-0.00725591 -0.00109055,-0.0125079 -0.00109055,-0.0156063l0 -3.23919c0,-0.0154449 0.00236614,-0.0306378 0.00674016,-0.0452638 0.00996457,-0.0332717 0.0305748,-0.0615591 0.0574094,-0.0815315 0.026752,-0.0199134 0.0595866,-0.0315197 0.0941024,-0.0315197 0.0146693,0 0.0298701,0.00216929 0.0452638,0.00677953l0.520591 0.15563c0.0333543,0.01 0.0616024,0.0305354 0.0815827,0.0573819 0.0199252,0.0267913 0.0314646,0.0595827 0.0314646,0.0941535l0 2.61317c0.315484,0.00196063 0.618815,0.0157323 0.916736,0.0670315 0.310748,0.0535039 0.613083,0.147524 0.912768,0.310642 0.295134,-0.160551 0.59374,-0.254496 0.900673,-0.308602 0.301398,-0.053126 0.609067,-0.0675669 0.928878,-0.0691732l0 -2.61307c0,-0.0346063 0.0115433,-0.0673898 0.0314803,-0.0941614 0.0200157,-0.0268661 0.0482795,-0.0474055 0.0816181,-0.057374l0.520539 -0.15563c0.024,-0.00716142 0.0488268,-0.00846457 0.0725157,-0.00429528zm-0.0823622 0.229594l-0.410453 0.122717 0 2.63646 -0.000346457 0c0.000110236,0.0222441 -0.00549606,0.148933 -0.148488,0.148933 -0.332886,0 -0.650583,0.0120354 -0.956713,0.0659961 -0.302445,0.053315 -0.595598,0.147886 -0.884437,0.313126l-0.0529291 0.0302795 -0.0529055 -0.0302795c-0.293417,-0.167933 -0.589953,-0.262528 -0.895673,-0.315165 -0.309307,-0.0532559 -0.630835,-0.0639567 -0.968697,-0.0639567 -0.115831,0 -0.124748,-0.104705 -0.125173,-0.130783l-0.000370079 0 0 -2.65463 -0.410476 -0.122713 0 3.10539c0.346476,-0.0310512 0.772531,-0.0443661 1.17527,-0.00137402 0.329461,0.0351693 0.64463,0.108028 0.892079,0.23935l-9.05512e-005 0.000173228 0.00716929 0.00377559c0.0573937,0.0302717 0.286906,0.151335 0.378929,0.151335 0.0920236,0 0.321724,-0.12115 0.379024,-0.15137l0.00710236 -0.00374016 -9.05512e-005 -0.000173228c0.247378,-0.131319 0.562531,-0.204177 0.89198,-0.239343 0.402744,-0.0429961 0.828839,-0.0296772 1.17529,0.00136614l0 -3.10537zm-4.96359 3.1107l0.000228346 -9.84252e-005c-0.00239764,0.000255906 -0.00644882,0.000665354 -0.00369685,0.000393701l0.000417323 0 0.00305118 -0.000295276zm2.02436 0.420811l-0.056063 -0.0295354 0.0559724 0.0297087 9.05512e-005 -0.000173228zm3.00042 -0.420398l0.0214606 0.00209843 -0.0222402 -0.00221654c0.00034252,3.54331e-005 0.000594488,7.48031e-005 0.000779528,0.00011811z"/>
   <path id="_542501648" class="fil1" d="M2.02696 4.19592c0.200882,0.0096378 0.408685,0.0295157 0.612543,0.0644134 0.155476,0.0266181 0.309654,0.0621299 0.458094,0.108681l0.000177165 -2.39702 -1.07081 -0.440496 0 2.66442zm0.576606 0.274996c-0.230862,-0.0395236 -0.465189,-0.0590354 -0.686913,-0.0660157l-0.103622 -0.00326378 0 -0.103283 0 -2.92613 0 -0.15928 0.147496 0.0606732 1.28433 0.528327 0.0660236 0.0271614 -7.87402e-006 0.0714449 -0.000192913 2.61765 -7.87402e-006 0.153685 -0.143724 -0.0538228c-0.1765,-0.0661024 -0.367854,-0.113669 -0.563382,-0.147142z"/>
  </g>
 </g>
</svg>
